<svg width="44" height="43" viewBox="0 0 44 43" fill="none" xmlns="http://www.w3.org/2000/svg">
<path d="M17.1621 25.5068H27.1621" stroke="white" stroke-width="3" stroke-linecap="round" stroke-linejoin="round"/>
<path d="M11.1621 41.1582H33.1621" stroke="white" stroke-width="3" stroke-linecap="round" stroke-linejoin="round"/>
<path d="M31.5625 35.2498H12.7625C11.9225 35.2498 10.9825 34.6041 10.7025 33.8216L2.42251 11.1659C1.24251 7.91824 2.62251 6.92046 5.46251 8.91603L13.2625 14.3745C14.5625 15.2549 16.0425 14.8049 16.6025 13.3767L20.1225 4.201C21.2425 1.26633 23.1025 1.26633 24.2225 4.201L27.7425 13.3767C28.3025 14.8049 29.7825 15.2549 31.0625 14.3745L38.3825 9.26819C41.5025 7.07697 43.0025 8.19214 41.7225 11.7333L33.6425 33.8607C33.3425 34.6041 32.4025 35.2498 31.5625 35.2498Z" stroke="white" stroke-width="3" stroke-linecap="round" stroke-linejoin="round"/>
</svg>
